<svg width="36" height="36" viewBox="0 0 36 36" fill="none" xmlns="http://www.w3.org/2000/svg">
<path d="M19.3498 22.1833L15.8507 20.2833C15.5396 20.6056 15.1731 20.8611 14.7509 21.05C14.3288 21.2389 13.8845 21.3333 13.4179 21.3333C12.8181 21.3333 12.2627 21.1833 11.7517 20.8833C11.2407 20.5833 10.8353 20.1778 10.5353 19.6667C10.2354 19.1556 10.0854 18.6 10.0854 18C10.0854 17.4 10.2354 16.8444 10.5353 16.3333C10.8353 15.8222 11.2407 15.4167 11.7517 15.1167C12.2627 14.8167 12.8181 14.6667 13.4179 14.6667C13.8845 14.6667 14.3288 14.7611 14.7509 14.95C15.1731 15.1389 15.5396 15.3944 15.8507 15.7167L19.3498 13.8167C19.2831 13.55 19.2498 13.2778 19.2498 13C19.2498 12.4 19.3998 11.8444 19.6997 11.3333C19.9996 10.8222 20.4051 10.4167 20.9161 10.1167C21.4271 9.81667 21.9825 9.66667 22.5823 9.66667C23.1822 9.66667 23.7376 9.81667 24.2486 10.1167C24.7596 10.4167 25.165 10.8222 25.4649 11.3333C25.7649 11.8444 25.9148 12.4 25.9148 13C25.9148 13.6 25.7649 14.1556 25.4649 14.6667C25.165 15.1778 24.7596 15.5833 24.2486 15.8833C23.7376 16.1833 23.1822 16.3333 22.5823 16.3333C22.1158 16.3333 21.6714 16.2389 21.2493 16.05C20.8272 15.8611 20.4606 15.6056 20.1496 15.2833L16.6505 17.1833C16.7171 17.45 16.7504 17.7222 16.7504 18C16.7504 18.2778 16.7171 18.55 16.6505 18.8167L20.1496 20.7167C20.4606 20.3944 20.8272 20.1389 21.2493 19.95C21.6714 19.7611 22.1158 19.6667 22.5823 19.6667C23.1822 19.6667 23.7376 19.8167 24.2486 20.1167C24.7596 20.4167 25.165 20.8222 25.4649 21.3333C25.7649 21.8444 25.9148 22.4 25.9148 23C25.9148 23.6 25.7649 24.1556 25.4649 24.6667C25.165 25.1778 24.7596 25.5833 24.2486 25.8833C23.7376 26.1833 23.1822 26.3333 22.5823 26.3333C21.9825 26.3333 21.4271 26.1833 20.9161 25.8833C20.4051 25.5833 19.9996 25.1778 19.6997 24.6667C19.3998 24.1556 19.2498 23.6 19.2498 23C19.2498 22.7222 19.2831 22.45 19.3498 22.1833ZM13.4179 19.6667C13.7179 19.6667 13.9956 19.5917 14.2511 19.4417C14.5066 19.2917 14.7093 19.0889 14.8593 18.8333C15.0092 18.5778 15.0842 18.3 15.0842 18C15.0842 17.7 15.0092 17.4222 14.8593 17.1667C14.7093 16.9111 14.5066 16.7083 14.2511 16.5583C13.9956 16.4083 13.7179 16.3333 13.4179 16.3333C13.118 16.3333 12.8403 16.4083 12.5848 16.5583C12.3293 16.7083 12.1266 16.9111 11.9766 17.1667C11.8267 17.4222 11.7517 17.7 11.7517 18C11.7517 18.3 11.8267 18.5778 11.9766 18.8333C12.1266 19.0889 12.3293 19.2917 12.5848 19.4417C12.8403 19.5917 13.118 19.6667 13.4179 19.6667ZM22.5823 14.6667C22.8822 14.6667 23.16 14.5917 23.4155 14.4417C23.6709 14.2917 23.8737 14.0889 24.0236 13.8333C24.1736 13.5778 24.2486 13.3 24.2486 13C24.2486 12.7 24.1736 12.4222 24.0236 12.1667C23.8737 11.9111 23.6709 11.7083 23.4155 11.5583C23.16 11.4083 22.8822 11.3333 22.5823 11.3333C22.2824 11.3333 22.0047 11.4083 21.7492 11.5583C21.4937 11.7083 21.291 11.9111 21.141 12.1667C20.9911 12.4222 20.9161 12.7 20.9161 13C20.9161 13.3 20.9911 13.5778 21.141 13.8333C21.291 14.0889 21.4937 14.2917 21.7492 14.4417C22.0047 14.5917 22.2824 14.6667 22.5823 14.6667ZM22.5823 24.6667C22.8822 24.6667 23.16 24.5917 23.4155 24.4417C23.6709 24.2917 23.8737 24.0889 24.0236 23.8333C24.1736 23.5778 24.2486 23.3 24.2486 23C24.2486 22.7 24.1736 22.4222 24.0236 22.1667C23.8737 21.9111 23.6709 21.7083 23.4155 21.5583C23.16 21.4083 22.8822 21.3333 22.5823 21.3333C22.2824 21.3333 22.0047 21.4083 21.7492 21.5583C21.4937 21.7083 21.291 21.9111 21.141 22.1667C20.9911 22.4222 20.9161 22.7 20.9161 23C20.9161 23.3 20.9911 23.5778 21.141 23.8333C21.291 24.0889 21.4937 24.2917 21.7492 24.4417C22.0047 24.5917 22.2824 24.6667 22.5823 24.6667Z" fill="#374151"/>
</svg>
