<svg width="21" height="28" viewBox="0 0 21 28" fill="none" xmlns="http://www.w3.org/2000/svg">
<path d="M6.49833 21.3499L2.08276 22.3333L3.06585 17.9166C2.41046 16.7055 2.08276 15.3999 2.08276 13.9999C2.08276 12.8666 2.29938 11.7833 2.7326 10.7499C3.15472 9.76103 3.75179 8.88048 4.52382 8.10825C5.29585 7.33603 6.17618 6.73881 7.16483 6.31659C8.1979 5.88325 9.28096 5.66659 10.414 5.66659C11.5471 5.66659 12.6301 5.88325 13.6632 6.31659C14.6518 6.73881 15.5322 7.33603 16.3042 8.10825C17.0762 8.88048 17.6733 9.76103 18.0954 10.7499C18.5287 11.7833 18.7453 12.8666 18.7453 13.9999C18.7453 15.1333 18.5287 16.2166 18.0954 17.2499C17.6733 18.2388 17.0762 19.1194 16.3042 19.8916C15.5322 20.6638 14.6518 21.261 13.6632 21.6833C12.6301 22.1166 11.5471 22.3333 10.414 22.3333C9.01436 22.3333 7.70913 22.0055 6.49833 21.3499Z" fill="#9333EA"/>
</svg>
