<svg width="40" height="40" viewBox="0 0 40 40" fill="none" xmlns="http://www.w3.org/2000/svg">
<path d="M0 20C0 8.95431 8.95431 0 20 0C31.0457 0 40 8.95431 40 20C40 31.0457 31.0457 40 20 40C8.95431 40 0 31.0457 0 20Z" fill="#FAF5FF"/>
<path d="M12.7774 24.1667C12.4219 23.5556 12.1498 22.9111 11.9609 22.2333C12.3719 22.0222 12.7024 21.7167 12.9524 21.3167C13.2023 20.9167 13.3273 20.4778 13.3273 20C13.3273 19.5222 13.2023 19.0833 12.9524 18.6833C12.7024 18.2833 12.3719 17.9778 11.9609 17.7667C12.3497 16.3778 13.044 15.1722 14.0438 14.15C14.4325 14.4056 14.863 14.5417 15.3351 14.5583C15.8072 14.575 16.2488 14.4639 16.6598 14.225C17.0708 13.9861 17.3874 13.6583 17.6095 13.2417C17.8317 12.825 17.9317 12.3889 17.9095 11.9333C19.298 11.5667 20.6865 11.5667 22.0751 11.9333C22.0529 12.3889 22.1528 12.825 22.375 13.2417C22.5972 13.6583 22.9138 13.9861 23.3248 14.225C23.7358 14.4639 24.1773 14.575 24.6494 14.5583C25.1215 14.5417 25.552 14.4056 25.9408 14.15C26.4295 14.6611 26.8517 15.2222 27.2071 15.8333C27.5626 16.4445 27.8347 17.0889 28.0236 17.7667C27.6126 17.9778 27.2821 18.2833 27.0322 18.6833C26.7822 19.0833 26.6573 19.5222 26.6573 20C26.6573 20.4778 26.7822 20.9167 27.0322 21.3167C27.2821 21.7167 27.6126 22.0222 28.0236 22.2333C27.6348 23.6222 26.9405 24.8278 25.9408 25.85C25.552 25.5945 25.1215 25.4583 24.6494 25.4417C24.1773 25.425 23.7358 25.5361 23.3248 25.775C22.9138 26.0139 22.5972 26.3417 22.375 26.7583C22.1528 27.175 22.0529 27.6111 22.0751 28.0667C20.6865 28.4333 19.298 28.4333 17.9095 28.0667C17.9317 27.6111 17.8317 27.175 17.6095 26.7583C17.3874 26.3417 17.0708 26.0139 16.6598 25.775C16.2488 25.5361 15.8072 25.425 15.3351 25.4417C14.863 25.4583 14.4325 25.5945 14.0438 25.85C13.555 25.3389 13.1329 24.7778 12.7774 24.1667ZM17.4929 24.3333C17.9372 24.5889 18.3205 24.9167 18.6426 25.3167C18.9647 25.7167 19.2091 26.1556 19.3758 26.6333C19.7868 26.6778 20.1978 26.6778 20.6088 26.6333C20.7754 26.1556 21.017 25.7167 21.3336 25.3167C21.6502 24.9167 22.0334 24.5861 22.4833 24.325C22.9332 24.0639 23.4136 23.8945 23.9246 23.8167C24.4356 23.7389 24.9355 23.7556 25.4242 23.8667C25.6686 23.5222 25.8797 23.1611 26.0574 22.7833C25.7131 22.4056 25.4492 21.9778 25.2659 21.5C25.0827 21.0222 24.991 20.5222 24.991 20C24.991 19.4778 25.0827 18.9778 25.2659 18.5C25.4492 18.0222 25.7131 17.5945 26.0574 17.2167C25.9685 17.0278 25.8713 16.8445 25.7658 16.6667C25.6603 16.4889 25.5464 16.3111 25.4242 16.1333C24.9355 16.2445 24.4356 16.2611 23.9246 16.1833C23.4136 16.1056 22.936 15.9361 22.4916 15.675C22.0473 15.4139 21.6641 15.0833 21.3419 14.6833C21.0198 14.2833 20.7754 13.8445 20.6088 13.3667C20.1978 13.3222 19.7868 13.3222 19.3758 13.3667C19.2091 13.8445 18.9675 14.2833 18.6509 14.6833C18.3343 15.0833 17.9483 15.4139 17.4929 15.675C17.0374 15.9361 16.557 16.1056 16.0516 16.1833C15.5462 16.2611 15.0491 16.2445 14.5603 16.1333C14.3159 16.4778 14.1048 16.8389 13.9271 17.2167C14.2715 17.5945 14.5353 18.0222 14.7186 18.5C14.9019 18.9778 14.9935 19.4778 14.9935 20C14.9935 20.5222 14.9019 21.0222 14.7186 21.5C14.5353 21.9778 14.2715 22.4056 13.9271 22.7833C14.016 22.9722 14.1132 23.1556 14.2187 23.3333C14.3242 23.5111 14.4381 23.6889 14.5603 23.8667C15.0491 23.7556 15.5489 23.7389 16.0599 23.8167C16.5709 23.8945 17.0486 24.0667 17.4929 24.3333ZM19.9923 22.5C19.5368 22.5 19.1175 22.3889 18.7342 22.1667C18.351 21.9445 18.0483 21.6417 17.8261 21.2583C17.604 20.875 17.4929 20.4556 17.4929 20C17.4929 19.5445 17.604 19.125 17.8261 18.7417C18.0483 18.3583 18.351 18.0556 18.7342 17.8333C19.1175 17.6111 19.5368 17.5 19.9923 17.5C20.4477 17.5 20.867 17.6111 21.2503 17.8333C21.6335 18.0556 21.9362 18.3583 22.1584 18.7417C22.3806 19.125 22.4916 19.5445 22.4916 20C22.4916 20.4556 22.3806 20.875 22.1584 21.2583C21.9362 21.6417 21.6335 21.9445 21.2503 22.1667C20.867 22.3889 20.4477 22.5 19.9923 22.5ZM19.9923 20.8333C20.2255 20.8333 20.4227 20.7528 20.5838 20.5917C20.7449 20.4306 20.8254 20.2333 20.8254 20C20.8254 19.7667 20.7449 19.5695 20.5838 19.4083C20.4227 19.2472 20.2255 19.1667 19.9923 19.1667C19.759 19.1667 19.5618 19.2472 19.4007 19.4083C19.2397 19.5695 19.1591 19.7667 19.1591 20C19.1591 20.2333 19.2397 20.4306 19.4007 20.5917C19.5618 20.7528 19.759 20.8333 19.9923 20.8333Z" fill="#9333EA"/>
</svg>
