<svg width="40" height="40" viewBox="0 0 40 40" fill="none" xmlns="http://www.w3.org/2000/svg">
<path d="M0 20C0 8.95431 8.95431 0 20 0C31.0457 0 40 8.95431 40 20C40 31.0457 31.0457 40 20 40C8.95431 40 0 31.0457 0 20Z" fill="#FAF5FF"/>
<path d="M28.3236 23.8167C28.3236 24.5945 28.1515 25.3333 27.8071 26.0333C27.4738 26.7 27.0073 27.2695 26.4074 27.7417C25.8076 28.2139 25.1355 28.5333 24.3913 28.7L23.8581 27.1C24.358 27.0222 24.8134 26.8389 25.2244 26.55C25.6354 26.2611 25.9631 25.9 26.2075 25.4667H24.158C23.8581 25.4667 23.5804 25.3945 23.3249 25.25C23.0694 25.1056 22.8667 24.9056 22.7167 24.65C22.5667 24.3945 22.4918 24.1111 22.4918 23.8V20.4667C22.4918 20.1667 22.5667 19.8889 22.7167 19.6333C22.8667 19.3778 23.0694 19.175 23.3249 19.025C23.5804 18.875 23.8581 18.8 24.158 18.8H26.6074C26.4741 17.7222 26.0964 16.7389 25.4743 15.85C24.8523 14.9611 24.0691 14.2611 23.1249 13.75C22.1474 13.2278 21.1032 12.9667 19.9924 12.9667C18.8815 12.9667 17.8374 13.2278 16.8598 13.75C15.9156 14.2611 15.1325 14.9611 14.5104 15.85C13.8884 16.7389 13.5107 17.7222 13.3774 18.8H15.8268C16.1267 18.8 16.4044 18.875 16.6599 19.025C16.9154 19.175 17.1181 19.3778 17.2681 19.6333C17.418 19.8889 17.493 20.1667 17.493 20.4667V23.8C17.493 24.1111 17.418 24.3945 17.2681 24.65C17.1181 24.9056 16.9154 25.1056 16.6599 25.25C16.4044 25.3945 16.1267 25.4667 15.8268 25.4667H13.3274C13.0275 25.4667 12.7497 25.3945 12.4943 25.25C12.2388 25.1056 12.036 24.9056 11.8861 24.65C11.7361 24.3945 11.6611 24.1111 11.6611 23.8V19.6333C11.6611 18.5111 11.8777 17.4333 12.311 16.4C12.7331 15.4 13.3302 14.5167 14.1022 13.75C14.8742 12.9833 15.7546 12.3889 16.7432 11.9667C17.7763 11.5222 18.8593 11.3 19.9924 11.3C21.1254 11.3 22.2085 11.5222 23.2416 11.9667C24.2302 12.3889 25.1105 12.9833 25.8826 13.75C26.6546 14.5167 27.2517 15.4 27.6738 16.4C28.107 17.4333 28.3236 18.5111 28.3236 19.6333V23.8167ZM26.6574 23.8V20.4667H24.158V23.8H26.6574ZM13.3274 20.4667V23.8H15.8268V20.4667H13.3274Z" fill="#9333EA"/>
</svg>
