<svg width="40" height="40" viewBox="0 0 40 40" fill="none" xmlns="http://www.w3.org/2000/svg">
<path d="M0 20C0 8.95431 8.95431 0 20 0C31.0457 0 40 8.95431 40 20C40 31.0457 31.0457 40 20 40C8.95431 40 0 31.0457 0 20Z" fill="#FAF5FF"/>
<path d="M14.1603 11.4H25.824C26.0573 11.4 26.2545 11.4805 26.4155 11.6416C26.5766 11.8027 26.6571 12 26.6571 12.2333V28.1833C26.6571 28.2944 26.6155 28.3916 26.5322 28.475C26.4489 28.5583 26.3517 28.6 26.2406 28.6C26.1628 28.6 26.0906 28.5777 26.024 28.5333L19.9921 24.75L13.9603 28.5333C13.8715 28.6 13.7687 28.6194 13.6521 28.5916C13.5354 28.5638 13.4493 28.5 13.3938 28.4C13.3494 28.3333 13.3271 28.2611 13.3271 28.1833V12.2333C13.3271 12 13.4077 11.8027 13.5688 11.6416C13.7298 11.4805 13.927 11.4 14.1603 11.4ZM24.9909 13.0666H14.9934V25.9333L19.9921 22.7833L24.9909 25.9333V13.0666Z" fill="#9333EA"/>
</svg>
