<svg width="36" height="36" viewBox="0 0 36 36" fill="none" xmlns="http://www.w3.org/2000/svg">
<path d="M10.7852 22.1667C10.4297 21.5556 10.1576 20.9111 9.96875 20.2333C10.3798 20.0222 10.7102 19.7167 10.9602 19.3167C11.2101 18.9167 11.3351 18.4778 11.3351 18C11.3351 17.5222 11.2101 17.0833 10.9602 16.6833C10.7102 16.2833 10.3798 15.9778 9.96875 15.7667C10.3575 14.3778 11.0518 13.1722 12.0516 12.15C12.4404 12.4056 12.8708 12.5417 13.3429 12.5583C13.815 12.575 14.2566 12.4639 14.6676 12.225C15.0786 11.9861 15.3952 11.6583 15.6173 11.2417C15.8395 10.825 15.9395 10.3889 15.9173 9.93333C17.3058 9.56667 18.6943 9.56667 20.0829 9.93333C20.0607 10.3889 20.1606 10.825 20.3828 11.2417C20.605 11.6583 20.9216 11.9861 21.3326 12.225C21.7436 12.4639 22.1851 12.575 22.6572 12.5583C23.1293 12.5417 23.5598 12.4056 23.9486 12.15C24.4374 12.6611 24.8595 13.2222 25.2149 13.8333C25.5704 14.4444 25.8426 15.0889 26.0314 15.7667C25.6204 15.9778 25.2899 16.2833 25.04 16.6833C24.79 17.0833 24.6651 17.5222 24.6651 18C24.6651 18.4778 24.79 18.9167 25.04 19.3167C25.2899 19.7167 25.6204 20.0222 26.0314 20.2333C25.6426 21.6222 24.9483 22.8278 23.9486 23.85C23.5598 23.5944 23.1293 23.4583 22.6572 23.4417C22.1851 23.425 21.7436 23.5361 21.3326 23.775C20.9216 24.0139 20.605 24.3417 20.3828 24.7583C20.1606 25.175 20.0607 25.6111 20.0829 26.0667C18.6943 26.4333 17.3058 26.4333 15.9173 26.0667C15.9395 25.6111 15.8395 25.175 15.6173 24.7583C15.3952 24.3417 15.0786 24.0139 14.6676 23.775C14.2566 23.5361 13.815 23.425 13.3429 23.4417C12.8708 23.4583 12.4404 23.5944 12.0516 23.85C11.5628 23.3389 11.1407 22.7778 10.7852 22.1667ZM15.5007 22.3333C15.945 22.5889 16.3283 22.9167 16.6504 23.3167C16.9726 23.7167 17.2169 24.1556 17.3836 24.6333C17.7946 24.6778 18.2056 24.6778 18.6166 24.6333C18.7832 24.1556 19.0248 23.7167 19.3414 23.3167C19.658 22.9167 20.0412 22.5861 20.4911 22.325C20.941 22.0639 21.4214 21.8944 21.9324 21.8167C22.4434 21.7389 22.9433 21.7556 23.4321 21.8667C23.6764 21.5222 23.8875 21.1611 24.0652 20.7833C23.7209 20.4056 23.457 19.9778 23.2738 19.5C23.0905 19.0222 22.9988 18.5222 22.9988 18C22.9988 17.4778 23.0905 16.9778 23.2738 16.5C23.457 16.0222 23.7209 15.5944 24.0652 15.2167C23.9764 15.0278 23.8792 14.8444 23.7736 14.6667C23.6681 14.4889 23.5542 14.3111 23.4321 14.1333C22.9433 14.2444 22.4434 14.2611 21.9324 14.1833C21.4214 14.1056 20.9438 13.9361 20.4995 13.675C20.0551 13.4139 19.6719 13.0833 19.3497 12.6833C19.0276 12.2833 18.7832 11.8444 18.6166 11.3667C18.2056 11.3222 17.7946 11.3222 17.3836 11.3667C17.2169 11.8444 16.9753 12.2833 16.6587 12.6833C16.3422 13.0833 15.9561 13.4139 15.5007 13.675C15.0453 13.9361 14.5648 14.1056 14.0594 14.1833C13.554 14.2611 13.0569 14.2444 12.5681 14.1333C12.3237 14.4778 12.1127 14.8389 11.9349 15.2167C12.2793 15.5944 12.5431 16.0222 12.7264 16.5C12.9097 16.9778 13.0013 17.4778 13.0013 18C13.0013 18.5222 12.9097 19.0222 12.7264 19.5C12.5431 19.9778 12.2793 20.4056 11.9349 20.7833C12.0238 20.9722 12.121 21.1556 12.2265 21.3333C12.332 21.5111 12.4459 21.6889 12.5681 21.8667C13.0569 21.7556 13.5567 21.7389 14.0677 21.8167C14.5787 21.8944 15.0564 22.0667 15.5007 22.3333ZM18.0001 20.5C17.5446 20.5 17.1253 20.3889 16.7421 20.1667C16.3588 19.9444 16.0561 19.6417 15.834 19.2583C15.6118 18.875 15.5007 18.4556 15.5007 18C15.5007 17.5444 15.6118 17.125 15.834 16.7417C16.0561 16.3583 16.3588 16.0556 16.7421 15.8333C17.1253 15.6111 17.5446 15.5 18.0001 15.5C18.4555 15.5 18.8749 15.6111 19.2581 15.8333C19.6413 16.0556 19.944 16.3583 20.1662 16.7417C20.3884 17.125 20.4995 17.5444 20.4995 18C20.4995 18.4556 20.3884 18.875 20.1662 19.2583C19.944 19.6417 19.6413 19.9444 19.2581 20.1667C18.8749 20.3889 18.4555 20.5 18.0001 20.5ZM18.0001 18.8333C18.2334 18.8333 18.4305 18.7528 18.5916 18.5917C18.7527 18.4306 18.8332 18.2333 18.8332 18C18.8332 17.7667 18.7527 17.5694 18.5916 17.4083C18.4305 17.2472 18.2334 17.1667 18.0001 17.1667C17.7668 17.1667 17.5696 17.2472 17.4086 17.4083C17.2475 17.5694 17.167 17.7667 17.167 18C17.167 18.2333 17.2475 18.4306 17.4086 18.5917C17.5696 18.7528 17.7668 18.8333 18.0001 18.8333Z" fill="#374151"/>
</svg>
