<svg width="36" height="36" viewBox="0 0 36 36" fill="none" xmlns="http://www.w3.org/2000/svg">
<path d="M18.0002 9.66667C19.1332 9.66667 20.2163 9.88334 21.2494 10.3167C22.238 10.7389 23.1184 11.3361 23.8904 12.1083C24.6624 12.8806 25.2595 13.7611 25.6816 14.75C26.1148 15.7833 26.3314 16.8667 26.3314 18C26.3314 19.1333 26.1148 20.2167 25.6816 21.25C25.2595 22.2389 24.6624 23.1194 23.8904 23.8917C23.1184 24.6639 22.238 25.2611 21.2494 25.6833C20.2163 26.1167 19.1332 26.3333 18.0002 26.3333C16.8671 26.3333 15.7841 26.1167 14.751 25.6833C13.7624 25.2611 12.882 24.6639 12.11 23.8917C11.338 23.1194 10.7409 22.2389 10.3188 21.25C9.88556 20.2167 9.66895 19.1333 9.66895 18H11.3352C11.3352 19.2111 11.6407 20.3333 12.2516 21.3667C12.8404 22.3667 13.6346 23.1611 14.6344 23.75C15.6674 24.3611 16.7894 24.6667 18.0002 24.6667C19.211 24.6667 20.3329 24.3611 21.366 23.75C22.3658 23.1611 23.16 22.3667 23.7488 21.3667C24.3597 20.3333 24.6652 19.2111 24.6652 18C24.6652 16.7889 24.3597 15.6667 23.7488 14.6333C23.16 13.6333 22.3658 12.8389 21.366 12.25C20.3329 11.6389 19.211 11.3333 18.0002 11.3333C16.8783 11.3333 15.823 11.6 14.8343 12.1333C13.879 12.6444 13.0959 13.35 12.4849 14.25H14.6677V15.9167H9.66895V10.9167H11.3352V13C12.1128 11.9667 13.0736 11.1556 14.2178 10.5667C15.3953 9.96667 16.6561 9.66667 18.0002 9.66667ZM18.8333 13.8333V17.65L21.5326 20.35L20.3496 21.5333L17.1671 18.35V13.8333H18.8333Z" fill="#374151"/>
</svg>
