<svg width="21" height="28" viewBox="0 0 21 28" fill="none" xmlns="http://www.w3.org/2000/svg">
<path d="M6.49837 21.3499L2.08281 22.3333L3.0659 17.9166C2.41051 16.7055 2.08281 15.3999 2.08281 13.9999C2.08281 12.8666 2.29942 11.7833 2.73265 10.7499C3.15476 9.76103 3.75184 8.88048 4.52387 8.10825C5.2959 7.33603 6.17623 6.73881 7.16487 6.31659C8.19795 5.88325 9.28101 5.66659 10.4141 5.66659C11.5471 5.66659 12.6302 5.88325 13.6632 6.31659C14.6519 6.73881 15.5322 7.33603 16.3043 8.10825C17.0763 8.88048 17.6734 9.76103 18.0955 10.7499C18.5287 11.7833 18.7453 12.8666 18.7453 13.9999C18.7453 15.1333 18.5287 16.2166 18.0955 17.2499C17.6734 18.2388 17.0763 19.1194 16.3043 19.8916C15.5322 20.6638 14.6519 21.261 13.6632 21.6833C12.6302 22.1166 11.5471 22.3333 10.4141 22.3333C9.01441 22.3333 7.70918 22.0055 6.49837 21.3499ZM6.73165 19.5999L7.28151 19.8833C8.25904 20.4055 9.30323 20.6666 10.4141 20.6666C11.6249 20.6666 12.7468 20.361 13.7799 19.7499C14.7796 19.161 15.5739 18.3666 16.1626 17.3666C16.7736 16.3333 17.0791 15.211 17.0791 13.9999C17.0791 12.7888 16.7736 11.6666 16.1626 10.6333C15.5739 9.63325 14.7796 8.83881 13.7799 8.24992C12.7468 7.63881 11.6249 7.33325 10.4141 7.33325C9.20325 7.33325 8.08131 7.63881 7.04823 8.24992C6.04848 8.83881 5.25424 9.63325 4.6655 10.6333C4.05454 11.6666 3.74906 12.7888 3.74906 13.9999C3.74906 15.111 4.01011 16.1555 4.5322 17.1333L4.81546 17.6833L4.28226 20.1333L6.73165 19.5999Z" fill="#6B7280"/>
</svg>
