<svg width="295" height="49" viewBox="0 0 295 49" fill="none" xmlns="http://www.w3.org/2000/svg">
<path d="M24.5 1H270.5C283.479 1 294 11.5213 294 24.5C294 37.4787 283.479 48 270.5 48H24.5C11.5213 48 1 37.4787 1 24.5C1 11.5213 11.5213 1 24.5 1Z" fill="white"/>
<path d="M24.5 1H270.5C283.479 1 294 11.5213 294 24.5C294 37.4787 283.479 48 270.5 48H24.5C11.5213 48 1 37.4787 1 24.5C1 11.5213 11.5213 1 24.5 1Z" stroke="#E5E7EB" stroke-width="2"/>
<g clip-path="url(#clip0_5_505)">
<path d="M101.305 24.7292C101.305 24.0506 101.25 23.3667 101.131 22.6986H91.7002V26.5492H97.1014C96.8773 27.7911 96.1571 28.8898 95.1025 29.5875V32.0866H98.3251C100.217 30.3449 101.305 27.7728 101.305 24.7292Z" fill="#4285F4"/>
<path d="M91.7002 34.5006C94.4516 34.5006 96.7727 33.6151 98.3296 32.0865L95.107 29.5874C94.2096 30.1972 93.0521 30.5428 91.7047 30.5428C89.0436 30.5428 86.7822 28.7828 85.9864 26.4165H82.667V28.9923C84.2608 32.3695 87.8155 34.5006 91.7002 34.5006Z" fill="#34A853"/>
<path d="M85.9817 26.4163C85.5665 25.1744 85.5665 23.8301 85.9817 22.5881V20.0123H82.6671C81.111 23.1693 81.111 26.8352 82.6671 29.9921L85.9817 26.4163Z" fill="#FBBC04"/>
<path d="M91.7002 18.4581C93.1241 18.436 94.5007 18.9725 95.5409 19.9572L98.3911 17.1022C96.6826 15.4908 94.4335 14.5808 91.7002 14.6044C87.8155 14.6044 84.2608 16.7355 82.667 20.1126L85.9817 22.6884C86.7726 20.3169 89.0388 18.4581 91.7002 18.4581Z" fill="#EA4335"/>
</g>
<path d="M122.43 23.9141V27.7148C122.288 27.9017 122.067 28.1068 121.767 28.3301C121.47 28.5488 121.076 28.738 120.584 28.8975C120.092 29.057 119.479 29.1367 118.745 29.1367C118.121 29.1367 117.549 29.0319 117.029 28.8223C116.51 28.6081 116.061 28.2959 115.683 27.8857C115.309 27.4756 115.02 26.9766 114.814 26.3887C114.609 25.7962 114.507 25.1217 114.507 24.3652V23.6748C114.507 22.9229 114.6 22.2529 114.787 21.665C114.979 21.0726 115.252 20.5713 115.607 20.1611C115.963 19.751 116.391 19.4411 116.893 19.2314C117.398 19.0173 117.97 18.9102 118.608 18.9102C119.424 18.9102 120.099 19.0469 120.632 19.3203C121.17 19.5892 121.584 19.9629 121.876 20.4414C122.168 20.9199 122.352 21.4668 122.43 22.082H120.748C120.693 21.7357 120.586 21.4258 120.427 21.1523C120.272 20.8789 120.049 20.6647 119.757 20.5098C119.47 20.3503 119.096 20.2705 118.636 20.2705C118.239 20.2705 117.891 20.3457 117.59 20.4961C117.289 20.6465 117.038 20.8675 116.838 21.1592C116.642 21.4508 116.494 21.8063 116.394 22.2256C116.293 22.6449 116.243 23.1234 116.243 23.6611V24.3652C116.243 24.9121 116.3 25.3975 116.414 25.8213C116.533 26.2451 116.701 26.6029 116.92 26.8945C117.143 27.1862 117.414 27.4072 117.733 27.5576C118.052 27.7035 118.412 27.7764 118.813 27.7764C119.205 27.7764 119.527 27.7445 119.777 27.6807C120.028 27.6123 120.226 27.5326 120.372 27.4414C120.522 27.3457 120.639 27.2546 120.721 27.168V25.1924H118.649V23.9141H122.43ZM123.852 25.3838V25.2266C123.852 24.6934 123.929 24.1989 124.084 23.7432C124.239 23.2829 124.462 22.8841 124.754 22.5469C125.05 22.2051 125.41 21.9408 125.834 21.7539C126.262 21.5625 126.745 21.4668 127.283 21.4668C127.826 21.4668 128.309 21.5625 128.732 21.7539C129.161 21.9408 129.523 22.2051 129.819 22.5469C130.116 22.8841 130.341 23.2829 130.496 23.7432C130.651 24.1989 130.729 24.6934 130.729 25.2266V25.3838C130.729 25.917 130.651 26.4115 130.496 26.8672C130.341 27.3229 130.116 27.7217 129.819 28.0635C129.523 28.4007 129.163 28.665 128.739 28.8564C128.315 29.0433 127.835 29.1367 127.297 29.1367C126.755 29.1367 126.269 29.0433 125.841 28.8564C125.417 28.665 125.057 28.4007 124.761 28.0635C124.465 27.7217 124.239 27.3229 124.084 26.8672C123.929 26.4115 123.852 25.917 123.852 25.3838ZM125.499 25.2266V25.3838C125.499 25.7165 125.533 26.0309 125.602 26.3271C125.67 26.6234 125.777 26.8831 125.923 27.1064C126.069 27.3298 126.256 27.5052 126.483 27.6328C126.711 27.7604 126.982 27.8242 127.297 27.8242C127.602 27.8242 127.867 27.7604 128.09 27.6328C128.318 27.5052 128.505 27.3298 128.65 27.1064C128.796 26.8831 128.903 26.6234 128.972 26.3271C129.045 26.0309 129.081 25.7165 129.081 25.3838V25.2266C129.081 24.8984 129.045 24.5885 128.972 24.2969C128.903 24.0007 128.794 23.7386 128.644 23.5107C128.498 23.2829 128.311 23.1051 128.083 22.9775C127.86 22.8454 127.593 22.7793 127.283 22.7793C126.973 22.7793 126.704 22.8454 126.477 22.9775C126.253 23.1051 126.069 23.2829 125.923 23.5107C125.777 23.7386 125.67 24.0007 125.602 24.2969C125.533 24.5885 125.499 24.8984 125.499 25.2266ZM131.795 25.3838V25.2266C131.795 24.6934 131.872 24.1989 132.027 23.7432C132.182 23.2829 132.406 22.8841 132.697 22.5469C132.993 22.2051 133.354 21.9408 133.777 21.7539C134.206 21.5625 134.689 21.4668 135.227 21.4668C135.769 21.4668 136.252 21.5625 136.676 21.7539C137.104 21.9408 137.466 22.2051 137.763 22.5469C138.059 22.8841 138.285 23.2829 138.439 23.7432C138.594 24.1989 138.672 24.6934 138.672 25.2266V25.3838C138.672 25.917 138.594 26.4115 138.439 26.8672C138.285 27.3229 138.059 27.7217 137.763 28.0635C137.466 28.4007 137.106 28.665 136.683 28.8564C136.259 29.0433 135.778 29.1367 135.24 29.1367C134.698 29.1367 134.213 29.0433 133.784 28.8564C133.36 28.665 133 28.4007 132.704 28.0635C132.408 27.7217 132.182 27.3229 132.027 26.8672C131.872 26.4115 131.795 25.917 131.795 25.3838ZM133.442 25.2266V25.3838C133.442 25.7165 133.477 26.0309 133.545 26.3271C133.613 26.6234 133.72 26.8831 133.866 27.1064C134.012 27.3298 134.199 27.5052 134.427 27.6328C134.655 27.7604 134.926 27.8242 135.24 27.8242C135.546 27.8242 135.81 27.7604 136.033 27.6328C136.261 27.5052 136.448 27.3298 136.594 27.1064C136.74 26.8831 136.847 26.6234 136.915 26.3271C136.988 26.0309 137.024 25.7165 137.024 25.3838V25.2266C137.024 24.8984 136.988 24.5885 136.915 24.2969C136.847 24.0007 136.737 23.7386 136.587 23.5107C136.441 23.2829 136.254 23.1051 136.026 22.9775C135.803 22.8454 135.536 22.7793 135.227 22.7793C134.917 22.7793 134.648 22.8454 134.42 22.9775C134.197 23.1051 134.012 23.2829 133.866 23.5107C133.72 23.7386 133.613 24.0007 133.545 24.2969C133.477 24.5885 133.442 24.8984 133.442 25.2266ZM144.79 21.6035H146.287V28.7949C146.287 29.4603 146.146 30.0254 145.863 30.4902C145.581 30.9551 145.187 31.3083 144.681 31.5498C144.175 31.7959 143.589 31.9189 142.924 31.9189C142.641 31.9189 142.327 31.8779 141.98 31.7959C141.639 31.7139 141.306 31.5817 140.982 31.3994C140.663 31.2217 140.397 30.987 140.183 30.6953L140.955 29.7246C141.219 30.0391 141.511 30.2692 141.83 30.415C142.149 30.5609 142.484 30.6338 142.835 30.6338C143.213 30.6338 143.535 30.5632 143.799 30.4219C144.068 30.2852 144.275 30.0824 144.421 29.8135C144.567 29.5446 144.64 29.2165 144.64 28.8291V23.2783L144.79 21.6035ZM139.766 25.3838V25.2402C139.766 24.6797 139.834 24.1693 139.971 23.709C140.107 23.2441 140.303 22.8454 140.559 22.5127C140.814 22.1755 141.124 21.918 141.488 21.7402C141.853 21.5579 142.265 21.4668 142.726 21.4668C143.204 21.4668 143.612 21.5534 143.949 21.7266C144.291 21.8997 144.576 22.1481 144.804 22.4717C145.032 22.7907 145.209 23.1735 145.337 23.6201C145.469 24.0622 145.567 24.5544 145.631 25.0967V25.5547C145.572 26.0833 145.471 26.5664 145.33 27.0039C145.189 27.4414 145.002 27.8197 144.77 28.1387C144.537 28.4577 144.25 28.7038 143.908 28.877C143.571 29.0501 143.172 29.1367 142.712 29.1367C142.261 29.1367 141.853 29.0433 141.488 28.8564C141.128 28.6696 140.818 28.4076 140.559 28.0703C140.303 27.7331 140.107 27.3366 139.971 26.8809C139.834 26.4206 139.766 25.9215 139.766 25.3838ZM141.413 25.2402V25.3838C141.413 25.721 141.445 26.0355 141.509 26.3271C141.577 26.6188 141.68 26.8763 141.816 27.0996C141.958 27.3184 142.135 27.4915 142.35 27.6191C142.568 27.7422 142.826 27.8037 143.122 27.8037C143.509 27.8037 143.826 27.7217 144.072 27.5576C144.323 27.3936 144.514 27.1725 144.646 26.8945C144.783 26.612 144.879 26.2975 144.934 25.9512V24.7139C144.906 24.445 144.849 24.1943 144.763 23.9619C144.681 23.7295 144.569 23.5267 144.428 23.3535C144.286 23.1758 144.109 23.0391 143.895 22.9434C143.68 22.8431 143.427 22.793 143.136 22.793C142.84 22.793 142.582 22.8568 142.363 22.9844C142.145 23.112 141.965 23.2874 141.823 23.5107C141.687 23.734 141.584 23.9938 141.516 24.29C141.447 24.5863 141.413 24.903 141.413 25.2402ZM149.76 18.5V29H148.105V18.5H149.76ZM154.825 29.1367C154.278 29.1367 153.784 29.0479 153.342 28.8701C152.904 28.6878 152.531 28.4349 152.221 28.1113C151.915 27.7878 151.681 27.4072 151.517 26.9697C151.353 26.5322 151.271 26.0605 151.271 25.5547V25.2812C151.271 24.7025 151.355 24.1784 151.523 23.709C151.692 23.2396 151.927 22.8385 152.228 22.5059C152.528 22.1686 152.884 21.9111 153.294 21.7334C153.704 21.5557 154.148 21.4668 154.627 21.4668C155.156 21.4668 155.618 21.5557 156.015 21.7334C156.411 21.9111 156.739 22.1618 156.999 22.4854C157.263 22.8044 157.459 23.1849 157.587 23.627C157.719 24.069 157.785 24.5566 157.785 25.0898V25.7939H152.07V24.6113H156.158V24.4814C156.149 24.1852 156.09 23.9072 155.98 23.6475C155.876 23.3877 155.714 23.1781 155.495 23.0186C155.276 22.859 154.985 22.7793 154.62 22.7793C154.347 22.7793 154.103 22.8385 153.889 22.957C153.679 23.071 153.504 23.2373 153.362 23.4561C153.221 23.6748 153.112 23.9391 153.034 24.249C152.961 24.5544 152.925 24.8984 152.925 25.2812V25.5547C152.925 25.8783 152.968 26.179 153.055 26.457C153.146 26.7305 153.278 26.9697 153.451 27.1748C153.624 27.3799 153.834 27.5417 154.08 27.6602C154.326 27.7741 154.606 27.8311 154.921 27.8311C155.317 27.8311 155.671 27.7513 155.98 27.5918C156.29 27.4323 156.559 27.2067 156.787 26.915L157.655 27.7559C157.496 27.9883 157.288 28.2116 157.033 28.4258C156.778 28.6354 156.466 28.8063 156.097 28.9385C155.732 29.0706 155.308 29.1367 154.825 29.1367ZM158.867 27.446H170.459V28.65H158.867V27.446ZM163.907 24.842H165.377V27.936H163.907V24.842ZM160.239 18.248H169.087V22.308H161.709V24.674H160.267V21.146H167.631V19.438H160.239V18.248ZM160.267 24.086H169.381V25.262H160.267V24.086ZM175.232 27.446H186.824V28.65H175.232V27.446ZM180.272 24.842H181.742V27.936H180.272V24.842ZM176.604 18.248H185.452V22.308H178.074V24.674H176.632V21.146H183.996V19.438H176.604V18.248ZM176.632 24.086H185.746V25.262H176.632V24.086ZM189.343 18.64H197.505V19.816H189.343V18.64ZM188.111 27.166H199.675V28.37H188.111V27.166ZM196.735 18.64H198.191V20.026C198.191 20.586 198.181 21.174 198.163 21.79C198.153 22.3967 198.116 23.064 198.051 23.792C197.985 24.5107 197.873 25.3227 197.715 26.228L196.245 26.088C196.413 25.2387 196.529 24.4593 196.595 23.75C196.66 23.0407 196.697 22.378 196.707 21.762C196.725 21.146 196.735 20.5673 196.735 20.026V18.64ZM210.062 17.366H211.532V26.648H210.062V17.366ZM203.188 28.706H211.896V29.896H203.188V28.706ZM203.188 25.71H204.644V29.168H203.188V25.71ZM204.63 18.22C205.274 18.22 205.852 18.3553 206.366 18.626C206.879 18.8967 207.285 19.2747 207.584 19.76C207.882 20.236 208.032 20.7867 208.032 21.412C208.032 22.028 207.882 22.5787 207.584 23.064C207.285 23.5493 206.879 23.9273 206.366 24.198C205.852 24.4687 205.274 24.604 204.63 24.604C203.986 24.604 203.407 24.4687 202.894 24.198C202.38 23.9273 201.974 23.5493 201.676 23.064C201.377 22.5787 201.228 22.028 201.228 21.412C201.228 20.7867 201.377 20.236 201.676 19.76C201.974 19.2747 202.38 18.8967 202.894 18.626C203.407 18.3553 203.986 18.22 204.63 18.22ZM204.63 19.494C204.256 19.494 203.92 19.5733 203.622 19.732C203.323 19.8907 203.09 20.1147 202.922 20.404C202.754 20.684 202.67 21.02 202.67 21.412C202.67 21.804 202.754 22.1447 202.922 22.434C203.09 22.714 203.323 22.9333 203.622 23.092C203.92 23.2507 204.256 23.33 204.63 23.33C205.003 23.33 205.339 23.2507 205.638 23.092C205.936 22.9333 206.17 22.714 206.338 22.434C206.515 22.1447 206.604 21.804 206.604 21.412C206.604 21.02 206.515 20.684 206.338 20.404C206.17 20.1147 205.936 19.8907 205.638 19.732C205.339 19.5733 205.003 19.494 204.63 19.494Z" fill="#374151"/>
<defs>
<clipPath id="clip0_5_505">
<rect width="20" height="20" fill="white" transform="translate(81.5 14.5)"/>
</clipPath>
</defs>
</svg>
