<svg width="36" height="36" viewBox="0 0 36 36" fill="none" xmlns="http://www.w3.org/2000/svg">
<path d="M12.5516 11.7C13.2958 11.0556 14.1289 10.5556 15.0509 10.2C15.9951 9.84445 16.9782 9.66667 18.0002 9.66667C19.1332 9.66667 20.2163 9.88334 21.2494 10.3167C22.238 10.7389 23.1184 11.3361 23.8904 12.1083C24.6624 12.8806 25.2595 13.7611 25.6816 14.75C26.1148 15.7833 26.3314 16.8667 26.3314 18C26.3314 18.8778 26.1981 19.7278 25.9315 20.55C25.6761 21.35 25.3039 22.0944 24.8152 22.7833L22.1658 18H24.6652C24.6652 16.7889 24.3597 15.6667 23.7488 14.6333C23.16 13.6333 22.3658 12.8389 21.366 12.25C20.3329 11.6389 19.211 11.3333 18.0002 11.3333C17.1226 11.3333 16.2784 11.5 15.4675 11.8333C14.6899 12.1556 13.9956 12.6056 13.3847 13.1833L12.5516 11.7ZM23.4488 24.3C22.7046 24.9444 21.8715 25.4444 20.9495 25.8C20.0052 26.1556 19.0222 26.3333 18.0002 26.3333C16.8671 26.3333 15.7841 26.1167 14.751 25.6833C13.7624 25.2611 12.882 24.6639 12.11 23.8917C11.338 23.1194 10.7409 22.2389 10.3188 21.25C9.88556 20.2167 9.66895 19.1333 9.66895 18C9.66895 17.1222 9.80225 16.2722 10.0688 15.45C10.3243 14.65 10.6965 13.9056 11.1852 13.2167L13.8346 18H11.3352C11.3352 19.2111 11.6407 20.3333 12.2516 21.3667C12.8404 22.3667 13.6346 23.1611 14.6344 23.75C15.6674 24.3611 16.7894 24.6667 18.0002 24.6667C18.8778 24.6667 19.722 24.5 20.5329 24.1667C21.3105 23.8444 22.0048 23.3944 22.6157 22.8167L23.4488 24.3Z" fill="#374151"/>
</svg>
