<svg width="36" height="36" viewBox="0 0 36 36" fill="none" xmlns="http://www.w3.org/2000/svg">
<path d="M22.891 21.7167L26.4567 25.2833L25.2737 26.4667L21.7079 22.9C21.0525 23.4222 20.3361 23.8222 19.5585 24.1C18.7365 24.3889 17.8922 24.5333 17.0258 24.5333C15.6706 24.5333 14.4098 24.1944 13.2434 23.5167C12.1103 22.85 11.2161 21.95 10.5607 20.8167C9.87201 19.65 9.52765 18.3889 9.52765 17.0333C9.52765 15.6778 9.87201 14.4167 10.5607 13.25C11.2161 12.1167 12.1103 11.2222 13.2434 10.5667C14.4098 9.87778 15.6706 9.53333 17.0258 9.53333C18.381 9.53333 19.6418 9.87778 20.8082 10.5667C21.9412 11.2222 22.841 12.1167 23.5075 13.25C24.1851 14.4167 24.5239 15.6778 24.5239 17.0333C24.5239 17.9 24.3795 18.7444 24.0907 19.5667C23.813 20.3444 23.4131 21.0611 22.891 21.7167ZM21.2081 21.1C21.7302 20.5667 22.1356 19.9556 22.4244 19.2667C22.7132 18.5556 22.8576 17.8111 22.8576 17.0333C22.8576 15.9778 22.591 14.9944 22.0578 14.0833C21.5469 13.2056 20.8526 12.5111 19.975 12C19.0642 11.4667 18.0811 11.2 17.0258 11.2C15.9705 11.2 14.9874 11.4667 14.0765 12C13.199 12.5111 12.5047 13.2056 11.9937 14.0833C11.4605 14.9944 11.1939 15.9778 11.1939 17.0333C11.1939 18.0889 11.4605 19.0722 11.9937 19.9833C12.5047 20.8611 13.199 21.5556 14.0765 22.0667C14.9874 22.6 15.9705 22.8667 17.0258 22.8667C17.8034 22.8667 18.5476 22.7222 19.2585 22.4333C19.9473 22.1444 20.5582 21.7389 21.0914 21.2167L21.2081 21.1Z" fill="white"/>
</svg>
