<svg width="36" height="36" viewBox="0 0 36 36" fill="none" xmlns="http://www.w3.org/2000/svg">
<path d="M12.1603 22.3667H23.824V16.5667C23.824 15.5111 23.5574 14.5278 23.0242 13.6167C22.5132 12.7278 21.819 12.0222 20.9414 11.5C20.0305 10.9778 19.0474 10.7167 17.9921 10.7167C16.9369 10.7167 15.9538 10.9778 15.0429 11.5C14.1653 12.0222 13.4711 12.7278 12.9601 13.6167C12.4269 14.5278 12.1603 15.5111 12.1603 16.5667V22.3667ZM17.9921 9.03334C19.3474 9.03334 20.6082 9.37779 21.7745 10.0667C22.9076 10.7333 23.8074 11.6333 24.4739 12.7667C25.1515 13.9333 25.4903 15.2 25.4903 16.5667V24.0333H10.494V16.5667C10.494 15.2 10.8328 13.9333 11.5104 12.7667C12.1769 11.6333 13.0767 10.7333 14.2098 10.0667C15.3761 9.3889 16.6369 9.05001 17.9921 9.05001V9.03334ZM15.9093 24.8667H20.075C20.075 25.2445 19.9805 25.5945 19.7917 25.9167C19.6029 26.2389 19.3501 26.4945 19.0336 26.6833C18.717 26.8722 18.3698 26.9667 17.9921 26.9667C17.6145 26.9667 17.2673 26.8722 16.9507 26.6833C16.6342 26.4945 16.3814 26.2389 16.1926 25.9167C16.0038 25.5945 15.9093 25.25 15.9093 24.8833V24.8667Z" fill="white"/>
</svg>
