<svg width="40" height="40" viewBox="0 0 40 40" fill="none" xmlns="http://www.w3.org/2000/svg">
<path d="M0 20C0 8.95431 8.95431 0 20 0C31.0457 0 40 8.95431 40 20C40 31.0457 31.0457 40 20 40C8.95431 40 0 31.0457 0 20Z" fill="#FAF5FF"/>
<path d="M27.4905 12.5C27.7238 12.5 27.921 12.5806 28.082 12.7417C28.2431 12.9028 28.3236 13.1 28.3236 13.3333V17.9167C27.9459 17.9167 27.5988 18.0111 27.2822 18.2C26.9656 18.3889 26.7129 18.6417 26.5241 18.9583C26.3352 19.275 26.2408 19.6222 26.2408 20C26.2408 20.3778 26.3352 20.725 26.5241 21.0417C26.7129 21.3583 26.9656 21.6111 27.2822 21.8C27.5988 21.9889 27.9459 22.0833 28.3236 22.0833V26.6667C28.3236 26.9 28.2431 27.0972 28.082 27.2583C27.921 27.4194 27.7238 27.5 27.4905 27.5H12.4943C12.261 27.5 12.0638 27.4194 11.9027 27.2583C11.7417 27.0972 11.6611 26.9 11.6611 26.6667V22.0833C12.0388 22.0833 12.386 21.9889 12.7025 21.8C13.0191 21.6111 13.2718 21.3583 13.4607 21.0417C13.6495 20.725 13.7439 20.3778 13.7439 20C13.7439 19.6222 13.6495 19.275 13.4607 18.9583C13.2718 18.6417 13.0191 18.3889 12.7025 18.2C12.386 18.0111 12.0388 17.9167 11.6611 17.9167V13.3333C11.6611 13.1 11.7417 12.9028 11.9027 12.7417C12.0638 12.5806 12.261 12.5 12.4943 12.5H27.4905ZM26.6574 14.1667H13.3274V16.6333L13.4607 16.7C14.0272 17.0111 14.4854 17.4444 14.8353 18C15.1853 18.5556 15.3769 19.1611 15.4102 19.8167V20C15.4102 20.7 15.2325 21.3417 14.877 21.925C14.5215 22.5083 14.0494 22.9667 13.4607 23.3L13.3274 23.3667V25.8333H26.6574V23.3667L26.5241 23.3C25.9576 22.9889 25.4993 22.5556 25.1494 22C24.7995 21.4444 24.6079 20.8389 24.5746 20.1833V20C24.5746 19.3 24.7523 18.6583 25.1078 18.075C25.4632 17.4917 25.9353 17.0333 26.5241 16.7L26.6574 16.6333V14.1667Z" fill="#9333EA"/>
</svg>
