<svg width="20" height="20" viewBox="0 0 20 20" fill="none" xmlns="http://www.w3.org/2000/svg">
<g clip-path="url(#clip0_5_506)">
<path d="M19.8055 10.2292C19.8055 9.55056 19.7501 8.86667 19.6306 8.19861H10.2002V12.0492H15.6014C15.3773 13.2911 14.6571 14.3898 13.6025 15.0875V17.5866H16.8251C18.7173 15.8449 19.8055 13.2728 19.8055 10.2292Z" fill="#4285F4"/>
<path d="M10.2002 20.0006C12.9516 20.0006 15.2727 19.1151 16.8296 17.5865L13.607 15.0874C12.7096 15.6972 11.5521 16.0428 10.2047 16.0428C7.54356 16.0428 5.28217 14.2828 4.48642 11.9165H1.16699V14.4923C2.76077 17.8695 6.31545 20.0006 10.2002 20.0006Z" fill="#34A853"/>
<path d="M4.48174 11.9163C4.06649 10.6744 4.06649 9.33009 4.48174 8.08813V5.51233H1.16708C-0.389027 8.66929 -0.389027 12.3352 1.16708 15.4921L4.48174 11.9163Z" fill="#FBBC04"/>
<path d="M10.2002 3.95805C11.6241 3.936 13.0007 4.47248 14.0409 5.45722L16.8911 2.60218C15.1826 0.990836 12.9335 0.0808402 10.2002 0.104389C6.31545 0.104389 2.76077 2.23549 1.16699 5.61261L4.48165 8.18841C5.27263 5.81691 7.53879 3.95805 10.2002 3.95805Z" fill="#EA4335"/>
</g>
<defs>
<clipPath id="clip0_5_506">
<rect width="20" height="20" fill="white"/>
</clipPath>
</defs>
</svg>
