<svg width="21" height="28" viewBox="0 0 21 28" fill="none" xmlns="http://www.w3.org/2000/svg">
<path d="M11.247 18.1167V19.8333H15.4126V21.5H5.41514V19.8333H9.58076V18.1167C8.49215 17.9833 7.5035 17.6056 6.61484 16.9833C5.72617 16.3611 5.0319 15.5778 4.53202 14.6333C4.00993 13.6556 3.74889 12.6111 3.74889 11.5V6.5H17.0789V11.5C17.0789 12.6111 16.8178 13.6556 16.2957 14.6333C15.7959 15.5778 15.1016 16.3611 14.2129 16.9833C13.3243 17.6056 12.3356 17.9833 11.247 18.1167ZM1.24951 8.16667H2.91576V11.5H1.24951V8.16667ZM17.912 8.16667H19.5783V11.5H17.912V8.16667Z" fill="#9333EA"/>
</svg>
