<svg width="21" height="28" viewBox="0 0 21 28" fill="none" xmlns="http://www.w3.org/2000/svg">
<path d="M3.74902 22.75C3.74902 21.5389 4.0545 20.4167 4.66546 19.3833C5.2542 18.3833 6.04845 17.5889 7.0482 17C8.08127 16.3889 9.20322 16.0833 10.414 16.0833C11.6248 16.0833 12.7468 16.3889 13.7798 17C14.7796 17.5889 15.5738 18.3833 16.1626 19.3833C16.7735 20.4167 17.079 21.5389 17.079 22.75H3.74902ZM10.414 15.25C9.50314 15.25 8.66446 15.0222 7.89799 14.5667C7.14262 14.1222 6.54277 13.5222 6.09844 12.7667C5.64299 12 5.41527 11.1611 5.41527 10.25C5.41527 9.33889 5.64299 8.5 6.09844 7.73333C6.54277 6.97778 7.14262 6.37778 7.89799 5.93333C8.66446 5.47778 9.50314 5.25 10.414 5.25C11.3249 5.25 12.1636 5.47778 12.9301 5.93333C13.6854 6.37778 14.2853 6.97778 14.7296 7.73333C15.1851 8.5 15.4128 9.33889 15.4128 10.25C15.4128 11.1611 15.1851 12 14.7296 12.7667C14.2853 13.5222 13.6854 14.1222 12.9301 14.5667C12.1636 15.0222 11.3249 15.25 10.414 15.25Z" fill="#9333EA"/>
</svg>
