<svg width="21" height="28" viewBox="0 0 21 28" fill="none" xmlns="http://www.w3.org/2000/svg">
<path d="M3.74905 22.75C3.74905 21.5389 4.05453 20.4167 4.66549 19.3833C5.25423 18.3833 6.04848 17.5889 7.04823 17C8.0813 16.3889 9.20325 16.0833 10.4141 16.0833C11.6249 16.0833 12.7468 16.3889 13.7799 17C14.7796 17.5889 15.5739 18.3833 16.1626 19.3833C16.7736 20.4167 17.0791 21.5389 17.0791 22.75H15.4128C15.4128 21.85 15.1851 21.0111 14.7296 20.2333C14.2853 19.4778 13.6855 18.8778 12.9301 18.4333C12.1525 17.9778 11.3138 17.75 10.4141 17.75C9.51428 17.75 8.6756 17.9778 7.89802 18.4333C7.14265 18.8778 6.5428 19.4778 6.09847 20.2333C5.64302 21.0111 5.4153 21.85 5.4153 22.75H3.74905ZM10.4141 15.25C9.50317 15.25 8.66449 15.0222 7.89802 14.5667C7.14265 14.1222 6.5428 13.5222 6.09847 12.7667C5.64302 12 5.4153 11.1611 5.4153 10.25C5.4153 9.33889 5.64302 8.5 6.09847 7.73333C6.5428 6.97778 7.14265 6.37778 7.89802 5.93333C8.66449 5.47778 9.50317 5.25 10.4141 5.25C11.3249 5.25 12.1636 5.47778 12.9301 5.93333C13.6855 6.37778 14.2853 6.97778 14.7296 7.73333C15.1851 8.5 15.4128 9.33889 15.4128 10.25C15.4128 11.1611 15.1851 12 14.7296 12.7667C14.2853 13.5222 13.6855 14.1222 12.9301 14.5667C12.1636 15.0222 11.3249 15.25 10.4141 15.25ZM10.4141 13.5833C11.0139 13.5833 11.5693 13.4333 12.0803 13.1333C12.5913 12.8333 12.9967 12.4278 13.2967 11.9167C13.5966 11.4056 13.7466 10.85 13.7466 10.25C13.7466 9.65 13.5966 9.09444 13.2967 8.58333C12.9967 8.07222 12.5913 7.66667 12.0803 7.36667C11.5693 7.06667 11.0139 6.91667 10.4141 6.91667C9.8142 6.91667 9.25879 7.06667 8.7478 7.36667C8.23682 7.66667 7.83137 8.07222 7.53144 8.58333C7.23152 9.09444 7.08155 9.65 7.08155 10.25C7.08155 10.85 7.23152 11.4056 7.53144 11.9167C7.83137 12.4278 8.23682 12.8333 8.7478 13.1333C9.25879 13.4333 9.8142 13.5833 10.4141 13.5833Z" fill="#6B7280"/>
</svg>
