<svg width="21" height="28" viewBox="0 0 21 28" fill="none" xmlns="http://www.w3.org/2000/svg">
<path d="M13.7466 7.33342C13.9798 7.33342 14.177 7.41397 14.3381 7.57508C14.4992 7.73619 14.5797 7.93342 14.5797 8.16675V11.6667L18.9286 8.63342C19.0175 8.56675 19.1202 8.54175 19.2369 8.55842C19.3535 8.57508 19.4396 8.63342 19.4951 8.73342C19.5507 8.80008 19.5784 8.87786 19.5784 8.96675V19.0334C19.5784 19.1445 19.5368 19.2417 19.4535 19.3251C19.3702 19.4084 19.273 19.4501 19.1619 19.4501C19.073 19.4501 18.9953 19.4223 18.9286 19.3667L14.5797 16.3334V19.8334C14.5797 20.0667 14.4992 20.264 14.3381 20.4251C14.177 20.5862 13.9798 20.6667 13.7466 20.6667H2.08282C1.84954 20.6667 1.65237 20.5862 1.4913 20.4251C1.33023 20.264 1.24969 20.0667 1.24969 19.8334V8.16675C1.24969 7.93342 1.33023 7.73619 1.4913 7.57508C1.65237 7.41397 1.84954 7.33342 2.08282 7.33342H13.7466ZM12.9134 9.00008H2.91594V19.0001H12.9134V9.00008ZM6.5817 11.3501C6.64834 11.3501 6.70944 11.3723 6.76498 11.4167L10.3807 13.7167C10.4585 13.7723 10.5085 13.8445 10.5307 13.9334C10.5529 14.0223 10.5418 14.1056 10.4974 14.1834C10.4641 14.2167 10.4252 14.2501 10.3807 14.2834L6.76498 16.5834C6.68722 16.639 6.60391 16.6556 6.51505 16.6334C6.42618 16.6112 6.35397 16.5612 6.29843 16.4834C6.26511 16.4279 6.24845 16.3723 6.24845 16.3167V11.6834C6.24845 11.5945 6.28177 11.5167 6.34842 11.4501C6.41507 11.3834 6.49283 11.3501 6.5817 11.3501ZM17.9122 11.3667L14.5797 13.7001V14.3001L17.9122 16.6334V11.3667Z" fill="#6B7280"/>
</svg>
