<svg width="36" height="36" viewBox="0 0 36 36" fill="none" xmlns="http://www.w3.org/2000/svg">
<path d="M12.1681 9.39994H23.8318C24.0651 9.39994 24.2623 9.48049 24.4234 9.64161C24.5844 9.80272 24.665 9.99994 24.665 10.2333V26.1833C24.665 26.2944 24.6233 26.3916 24.54 26.4749C24.4567 26.5583 24.3595 26.5999 24.2484 26.5999C24.1706 26.5999 24.0984 26.5777 24.0318 26.5333L18 22.7499L11.9681 26.5333C11.8793 26.5999 11.7765 26.6194 11.6599 26.5916C11.5432 26.5638 11.4572 26.4999 11.4016 26.3999C11.3572 26.3333 11.335 26.261 11.335 26.1833V10.2333C11.335 9.99994 11.4155 9.80272 11.5766 9.64161C11.7376 9.48049 11.9348 9.39994 12.1681 9.39994ZM22.9987 11.0666H13.0012V23.9333L18 20.7833L22.9987 23.9333V11.0666Z" fill="#374151"/>
</svg>
