<svg width="21" height="28" viewBox="0 0 21 28" fill="none" xmlns="http://www.w3.org/2000/svg">
<path d="M11.2472 18.1167V19.8333H15.4128V21.5H5.41532V19.8333H9.58095V18.1167C8.49233 17.9833 7.50369 17.6056 6.61502 16.9833C5.72635 16.3611 5.03208 15.5778 4.53221 14.6333C4.01012 13.6556 3.74907 12.6111 3.74907 11.5V6.5H17.0791V11.5C17.0791 12.6111 16.818 13.6556 16.2959 14.6333C15.7961 15.5778 15.1018 16.3611 14.2131 16.9833C13.3245 17.6056 12.3358 17.9833 11.2472 18.1167ZM5.41532 8.16667V11.5C5.41532 12.4 5.64304 13.2389 6.09848 14.0167C6.54282 14.7722 7.14267 15.3722 7.89803 15.8167C8.67562 16.2722 9.5143 16.5 10.4141 16.5C11.3138 16.5 12.1525 16.2722 12.9301 15.8167C13.6855 15.3722 14.2853 14.7722 14.7297 14.0167C15.1851 13.2389 15.4128 12.4 15.4128 11.5V8.16667H5.41532ZM1.24969 8.16667H2.91594V11.5H1.24969V8.16667ZM17.9122 8.16667H19.5784V11.5H17.9122V8.16667Z" fill="#6B7280"/>
</svg>
