<svg width="21" height="28" viewBox="0 0 21 28" fill="none" xmlns="http://www.w3.org/2000/svg">
<path d="M11.2473 20.1334H16.246V12.6167L10.4141 8.08338L4.58227 12.6167V20.1334H9.58102V15.1334H11.2473V20.1334ZM17.9123 20.9667C17.9123 21.2 17.8317 21.3973 17.6707 21.5584C17.5096 21.7195 17.3124 21.8 17.0791 21.8H3.74914C3.51587 21.8 3.31869 21.7195 3.15762 21.5584C2.99655 21.3973 2.91602 21.2 2.91602 20.9667V12.2167C2.91602 11.9389 3.02154 11.7167 3.2326 11.55L9.8976 6.36671C10.0531 6.2556 10.2253 6.20005 10.4141 6.20005C10.603 6.20005 10.7752 6.2556 10.9307 6.36671L17.5957 11.55C17.8067 11.7167 17.9123 11.9389 17.9123 12.2167V20.9667Z" fill="#6B7280"/>
</svg>
