<svg width="40" height="40" viewBox="0 0 40 40" fill="none" xmlns="http://www.w3.org/2000/svg">
<path d="M0 20C0 8.95431 8.95431 0 20 0C31.0457 0 40 8.95431 40 20C40 31.0457 31.0457 40 20 40C8.95431 40 0 31.0457 0 20Z" fill="#FAF5FF"/>
<path d="M19.9922 13.5667C20.6365 12.9889 21.3752 12.6083 22.2083 12.425C23.0414 12.2417 23.8634 12.2611 24.6743 12.4833C25.5186 12.7167 26.249 13.1417 26.8655 13.7583C27.482 14.375 27.9069 15.1056 28.1402 15.95C28.3623 16.7611 28.3818 17.5806 28.1985 18.4083C28.0152 19.2361 27.6347 19.9778 27.0571 20.6333L19.9922 27.7L12.9273 20.6333C12.3497 19.9778 11.9692 19.2361 11.7859 18.4083C11.6026 17.5806 11.6221 16.7611 11.8442 15.95C12.0775 15.1056 12.5052 14.375 13.1272 13.7583C13.7493 13.1417 14.4769 12.7167 15.31 12.4833C16.1209 12.2611 16.9429 12.2417 17.7761 12.425C18.6092 12.6083 19.3479 12.9889 19.9922 13.5667ZM25.6741 14.9333C25.2631 14.5222 24.7854 14.2417 24.2411 14.0917C23.6968 13.9417 23.147 13.9278 22.5915 14.05C22.0361 14.1722 21.5418 14.4278 21.1086 14.8167L19.9922 15.8167L18.8758 14.8167C18.4537 14.4278 17.9621 14.1722 17.4012 14.05C16.8402 13.9278 16.2876 13.9417 15.7432 14.0917C15.1989 14.2417 14.7213 14.5222 14.3103 14.9333C13.8993 15.3445 13.616 15.8222 13.4605 16.3667C13.305 16.9111 13.2855 17.4583 13.4022 18.0083C13.5188 18.5583 13.766 19.05 14.1436 19.4833L19.9922 25.35L25.8407 19.4833C26.2184 19.05 26.4656 18.5583 26.5822 18.0083C26.6988 17.4583 26.6794 16.9111 26.5239 16.3667C26.3684 15.8222 26.0851 15.3445 25.6741 14.9333Z" fill="#9333EA"/>
</svg>
