<svg width="81" height="21" viewBox="0 0 81 21" fill="none" xmlns="http://www.w3.org/2000/svg">
<path d="M17.76 2.22C18.1333 2.27333 18.3867 2.38667 18.52 2.56C18.6667 2.73333 18.74 2.96 18.74 3.24C18.74 4.16 18.2467 4.58667 17.26 4.52L16.56 4.46C15.7733 4.39333 14.9867 4.34 14.2 4.3C13.4267 4.26 12.6133 4.24 11.76 4.24H10.86C10.7 6.21333 10.5333 8.01333 10.36 9.64L13.8 9.58C14.2933 9.58 14.62 9.66667 14.78 9.84C14.9533 10.0133 15.04 10.2467 15.04 10.54C15.04 10.9933 14.9067 11.3533 14.64 11.62C14.3733 11.8733 13.9933 12 13.5 12H10.08L9.96 12.86C9.68 15.06 9.08 16.6267 8.16 17.56C7.25333 18.4933 6 18.96 4.4 18.96C3.49333 18.96 2.66 18.7667 1.9 18.38C1.14 17.98 0.58 17.5 0.22 16.94C0.0733338 16.7133 4.56814e-07 16.44 4.56814e-07 16.12C4.56814e-07 15.8 0.0733338 15.52 0.22 15.28C0.38 15.04 0.573334 14.92 0.8 14.92C0.960001 14.92 1.11333 14.9733 1.26 15.08C1.42 15.1867 1.62 15.3933 1.86 15.7C2.5 16.54 3.29333 16.96 4.24 16.96C5 16.96 5.63333 16.6533 6.14 16.04C6.66 15.4133 6.99333 14.4333 7.14 13.1L7.26 12H6.3C5.99333 12 5.72667 11.9133 5.5 11.74C5.28667 11.5667 5.18 11.32 5.18 11C5.18 10.5867 5.28667 10.2733 5.5 10.06C5.71333 9.83333 6.02667 9.72 6.44 9.72C6.81333 9.72 7.18 9.71333 7.54 9.7C7.7 8.23333 7.87333 6.45333 8.06 4.36C6.62 4.49333 5.60667 4.72667 5.02 5.06C4.43333 5.39333 4.14 5.88667 4.14 6.54C4.14 6.99333 4.27333 7.42667 4.54 7.84C4.62 7.96 4.66 8.08 4.66 8.2C4.66 8.44 4.52667 8.65333 4.26 8.84C3.99333 9.01333 3.69333 9.1 3.36 9.1C3 9.1 2.69333 8.99333 2.44 8.78C2.28 8.64667 2.12667 8.37333 1.98 7.96C1.83333 7.54667 1.76 7.08667 1.76 6.58C1.76 4.92667 2.60667 3.72667 4.3 2.98C6.00667 2.23333 8.49333 1.86 11.76 1.86C14.0267 1.86 16.0267 1.98 17.76 2.22ZM16.9752 18.9C16.1485 18.9 15.4885 18.6 14.9952 18C14.5018 17.4 14.2552 16.6133 14.2552 15.64C14.2552 14.5733 14.5018 13.5667 14.9952 12.62C15.4885 11.66 16.1418 10.8933 16.9552 10.32C17.7818 9.73333 18.6552 9.44 19.5752 9.44C19.8685 9.44 20.0618 9.5 20.1552 9.62C20.2618 9.72667 20.3485 9.92667 20.4152 10.22C20.6952 10.1667 20.9885 10.14 21.2952 10.14C21.9485 10.14 22.2752 10.3733 22.2752 10.84C22.2752 11.12 22.1752 11.7867 21.9752 12.84C21.6685 14.3733 21.5152 15.44 21.5152 16.04C21.5152 16.24 21.5618 16.4 21.6552 16.52C21.7618 16.64 21.8952 16.7 22.0552 16.7C22.3085 16.7 22.6152 16.54 22.9752 16.22C23.3352 15.8867 23.8218 15.3533 24.4352 14.62C24.5952 14.4333 24.7752 14.34 24.9752 14.34C25.1485 14.34 25.2818 14.42 25.3752 14.58C25.4818 14.74 25.5352 14.96 25.5352 15.24C25.5352 15.7733 25.4085 16.1867 25.1552 16.48C24.6085 17.16 24.0285 17.7333 23.4152 18.2C22.8018 18.6667 22.2085 18.9 21.6352 18.9C21.1952 18.9 20.7885 18.7533 20.4152 18.46C20.0552 18.1533 19.7818 17.74 19.5952 17.22C18.9018 18.34 18.0285 18.9 16.9752 18.9ZM17.6952 16.88C17.9885 16.88 18.2685 16.7067 18.5352 16.36C18.8018 16.0133 18.9952 15.5533 19.1152 14.98L19.8552 11.3C19.2952 11.3133 18.7752 11.5267 18.2952 11.94C17.8285 12.34 17.4552 12.8733 17.1752 13.54C16.8952 14.2067 16.7552 14.9133 16.7552 15.66C16.7552 16.0733 16.8352 16.38 16.9952 16.58C17.1685 16.78 17.4018 16.88 17.6952 16.88ZM25.3297 18.9C24.823 18.9 24.463 18.6333 24.2497 18.1C24.0497 17.5667 23.9497 16.7133 23.9497 15.54C23.9497 13.8067 24.1964 12.16 24.6897 10.6C24.8097 10.2133 25.003 9.93333 25.2697 9.76C25.5497 9.57333 25.9364 9.48 26.4297 9.48C26.6964 9.48 26.883 9.51333 26.9897 9.58C27.0964 9.64667 27.1497 9.77333 27.1497 9.96C27.1497 10.1733 27.0497 10.6533 26.8497 11.4C26.7164 11.9333 26.6097 12.4 26.5297 12.8C26.4497 13.2 26.383 13.6933 26.3297 14.28C26.7697 13.1333 27.263 12.2 27.8097 11.48C28.3564 10.76 28.8897 10.2467 29.4097 9.94C29.943 9.63333 30.4297 9.48 30.8697 9.48C31.7364 9.48 32.1697 9.91333 32.1697 10.78C32.1697 11.3 32.023 12.24 31.7297 13.6C31.4764 14.76 31.3497 15.5267 31.3497 15.9C31.3497 16.4333 31.543 16.7 31.9297 16.7C32.1964 16.7 32.5097 16.54 32.8697 16.22C33.243 15.8867 33.7364 15.3533 34.3497 14.62C34.5097 14.4333 34.6897 14.34 34.8897 14.34C35.063 14.34 35.1964 14.42 35.2897 14.58C35.3964 14.74 35.4497 14.96 35.4497 15.24C35.4497 15.7733 35.323 16.1867 35.0697 16.48C34.4964 17.1867 33.8764 17.7667 33.2097 18.22C32.5564 18.6733 31.8097 18.9 30.9697 18.9C30.2897 18.9 29.7764 18.7067 29.4297 18.32C29.083 17.92 28.9097 17.3467 28.9097 16.6C28.9097 16.2267 29.003 15.56 29.1897 14.6C29.363 13.76 29.4497 13.18 29.4497 12.86C29.4497 12.6467 29.3764 12.54 29.2297 12.54C29.0564 12.54 28.8097 12.7667 28.4897 13.22C28.183 13.66 27.863 14.2467 27.5297 14.98C27.2097 15.7133 26.9497 16.4867 26.7497 17.3C26.603 17.9267 26.4297 18.3533 26.2297 18.58C26.043 18.7933 25.743 18.9 25.3297 18.9ZM49.3316 6.88C49.3316 8.01333 49.0382 9.05333 48.4516 10C47.8649 10.9467 47.0116 11.72 45.8916 12.32C44.7716 12.92 43.4382 13.2733 41.8916 13.38L41.0316 18.2C40.6982 20.0533 39.7916 20.98 38.3116 20.98C37.4982 20.98 36.7449 20.74 36.0516 20.26C35.3716 19.78 34.8249 19.0467 34.4116 18.06C33.9982 17.0733 33.7916 15.86 33.7916 14.42C33.7916 11.7133 34.2249 9.42 35.0916 7.54C35.9716 5.64667 37.1449 4.23333 38.6116 3.3C40.0916 2.35333 41.7182 1.88 43.4916 1.88C44.7449 1.88 45.8049 2.1 46.6716 2.54C47.5516 2.98 48.2116 3.58 48.6516 4.34C49.1049 5.08667 49.3316 5.93333 49.3316 6.88ZM42.2516 11.32C44.9849 10.9733 46.3516 9.55333 46.3516 7.06C46.3516 6.18 46.0582 5.46667 45.4716 4.92C44.8982 4.36 44.0049 4.08 42.7916 4.08C41.4182 4.08 40.2182 4.51333 39.1916 5.38C38.1782 6.24667 37.3916 7.45333 36.8316 9C36.2849 10.5333 36.0116 12.2867 36.0116 14.26C36.0116 15.0867 36.0916 15.82 36.2516 16.46C36.4249 17.1 36.6382 17.6 36.8916 17.96C37.1582 18.3067 37.4116 18.48 37.6516 18.48C37.9849 18.48 38.2382 18.02 38.4116 17.1L39.0716 13.32C38.5516 13.24 38.3249 13.2067 38.3916 13.22C37.9916 13.1533 37.7316 13.0333 37.6116 12.86C37.4916 12.6733 37.4316 12.44 37.4316 12.16C37.4316 11.8667 37.5116 11.6333 37.6716 11.46C37.8449 11.2867 38.0782 11.2 38.3716 11.2C38.5049 11.2 38.6049 11.2067 38.6716 11.22C38.9916 11.2733 39.2382 11.3067 39.4116 11.32C39.5849 10.28 39.8316 8.88667 40.1516 7.14C40.2316 6.68667 40.4116 6.36667 40.6916 6.18C40.9849 5.98 41.3249 5.88 41.7116 5.88C42.1516 5.88 42.4649 5.96667 42.6516 6.14C42.8516 6.3 42.9516 6.56 42.9516 6.92C42.9516 7.13333 42.9382 7.30667 42.9116 7.44L42.2516 11.32ZM50.7739 18.9C50.1739 18.9 49.6806 18.6267 49.2939 18.08C48.9206 17.52 48.7339 16.8267 48.7339 16C48.7339 15 48.8006 14.0867 48.9339 13.26C49.0672 12.42 49.2872 11.5333 49.5939 10.6C49.7272 10.2 49.9139 9.91333 50.1539 9.74C50.3939 9.56667 50.7739 9.48 51.2939 9.48C51.5872 9.48 51.7872 9.52667 51.8939 9.62C52.0139 9.71333 52.0739 9.85333 52.0739 10.04C52.0739 10.1467 52.0006 10.5067 51.8539 11.12C51.7206 11.6133 51.6139 12.06 51.5339 12.46C51.2672 13.86 51.1339 14.7933 51.1339 15.26C51.1339 15.54 51.1672 15.74 51.2339 15.86C51.3006 15.9667 51.4072 16.02 51.5539 16.02C51.7539 16.02 52.0006 15.82 52.2939 15.42C52.6006 15.02 52.9206 14.4133 53.2539 13.6C53.6006 12.7867 53.9339 11.7867 54.2539 10.6C54.3606 10.2 54.5206 9.91333 54.7339 9.74C54.9606 9.56667 55.2939 9.48 55.7339 9.48C56.0406 9.48 56.2539 9.52 56.3739 9.6C56.4939 9.66667 56.5539 9.8 56.5539 10C56.5539 10.3333 56.3872 11.2467 56.0539 12.74C55.6806 14.4467 55.4939 15.5 55.4939 15.9C55.4939 16.1533 55.5472 16.3533 55.6539 16.5C55.7606 16.6333 55.9006 16.7 56.0739 16.7C56.3406 16.7 56.6539 16.54 57.0139 16.22C57.3872 15.8867 57.8806 15.3533 58.4939 14.62C58.6539 14.4333 58.8339 14.34 59.0339 14.34C59.2072 14.34 59.3406 14.42 59.4339 14.58C59.5406 14.74 59.5939 14.96 59.5939 15.24C59.5939 15.7733 59.4672 16.1867 59.2139 16.48C58.6406 17.1867 58.0206 17.7667 57.3539 18.22C56.7006 18.6733 55.9539 18.9 55.1139 18.9C54.4739 18.9 54.0006 18.6533 53.6939 18.16C53.4006 17.6667 53.2539 16.9733 53.2539 16.08C53.0272 16.9867 52.6872 17.6867 52.2339 18.18C51.7806 18.66 51.2939 18.9 50.7739 18.9ZM65.5522 14.34C65.7255 14.34 65.8589 14.42 65.9522 14.58C66.0589 14.74 66.1122 14.96 66.1122 15.24C66.1122 15.7733 65.9855 16.1867 65.7322 16.48C65.1589 17.1867 64.5322 17.7667 63.8522 18.22C63.1855 18.6733 62.4255 18.9 61.5722 18.9C60.3989 18.9 59.5255 18.3667 58.9522 17.3C58.3922 16.2333 58.1122 14.8533 58.1122 13.16C58.1122 11.5333 58.3189 9.68 58.7322 7.6C59.1589 5.52 59.7789 3.73333 60.5922 2.24C61.4189 0.746667 62.3989 0 63.5322 0C64.1722 0 64.6722 0.3 65.0322 0.9C65.4055 1.48667 65.5922 2.33333 65.5922 3.44C65.5922 5.02667 65.1522 6.86667 64.2722 8.96C63.3922 11.0533 62.1989 13.1267 60.6922 15.18C60.7855 15.7267 60.9389 16.12 61.1522 16.36C61.3655 16.5867 61.6455 16.7 61.9922 16.7C62.5389 16.7 63.0189 16.5467 63.4322 16.24C63.8455 15.92 64.3722 15.38 65.0122 14.62C65.1722 14.4333 65.3522 14.34 65.5522 14.34ZM63.0922 1.98C62.7855 1.98 62.4389 2.53333 62.0522 3.64C61.6655 4.74667 61.3255 6.12 61.0322 7.76C60.7389 9.4 60.5789 10.9733 60.5522 12.48C61.4989 10.92 62.2522 9.36 62.8122 7.8C63.3722 6.22667 63.6522 4.79333 63.6522 3.5C63.6522 2.48667 63.4655 1.98 63.0922 1.98ZM68.2156 19.34C67.5223 19.34 66.989 19.18 66.6156 18.86C66.2556 18.54 66.0756 18.18 66.0756 17.78C66.0756 17.4333 66.2023 17.1333 66.4556 16.88C66.709 16.6267 67.0823 16.5 67.5756 16.5C67.749 16.5 67.949 16.52 68.1756 16.56C68.4156 16.5867 68.5956 16.6067 68.7156 16.62C68.7023 16.2733 68.6223 15.9467 68.4756 15.64C68.3423 15.3333 68.169 15.04 67.9556 14.76C67.7423 14.4667 67.5423 14.2133 67.3556 14C66.9423 14.7867 66.529 15.44 66.1156 15.96C65.7156 16.48 65.2756 16.9733 64.7956 17.44C64.5556 17.68 64.3023 17.8 64.0356 17.8C63.8223 17.8 63.649 17.7267 63.5156 17.58C63.3823 17.42 63.3156 17.2267 63.3156 17C63.3156 16.7333 63.409 16.4867 63.5956 16.26L63.8556 15.94C64.589 15.0333 65.1423 14.2867 65.5156 13.7C65.7423 13.3133 66.009 12.8 66.3156 12.16C66.6223 11.5067 66.9223 10.8333 67.2156 10.14C67.469 9.55333 67.9956 9.26 68.7956 9.26C69.169 9.26 69.429 9.29333 69.5756 9.36C69.7223 9.42667 69.7956 9.53333 69.7956 9.68C69.7956 9.76 69.769 9.88667 69.7156 10.06C69.6623 10.2333 69.589 10.4067 69.4956 10.58C69.2556 11.06 69.1356 11.4667 69.1356 11.8C69.1356 12 69.2023 12.22 69.3356 12.46C69.4823 12.7 69.7023 13 69.9956 13.36C70.4223 13.92 70.7423 14.4 70.9556 14.8C71.1823 15.1867 71.2956 15.6133 71.2956 16.08C71.2956 16.2133 71.2823 16.4 71.2556 16.64C71.909 16.3867 72.6756 15.7133 73.5556 14.62C73.7156 14.4333 73.8956 14.34 74.0956 14.34C74.269 14.34 74.4023 14.42 74.4956 14.58C74.6023 14.74 74.6556 14.96 74.6556 15.24C74.6556 15.7467 74.529 16.16 74.2756 16.48C73.609 17.3067 72.969 17.8733 72.3556 18.18C71.7556 18.4733 71.009 18.6333 70.1156 18.66C69.5823 19.1133 68.949 19.34 68.2156 19.34ZM80.1908 14.94C80.3641 14.94 80.4974 15.02 80.5908 15.18C80.6974 15.34 80.7508 15.56 80.7508 15.84C80.7508 16.32 80.6374 16.7333 80.4108 17.08C80.0374 17.6533 79.5441 18.1 78.9308 18.42C78.3308 18.74 77.6108 18.9 76.7708 18.9C75.4908 18.9 74.4974 18.52 73.7908 17.76C73.0841 16.9867 72.7308 15.9467 72.7308 14.64C72.7308 13.72 72.9241 12.8667 73.3108 12.08C73.6974 11.28 74.2308 10.6467 74.9108 10.18C75.6041 9.71333 76.3841 9.48 77.2508 9.48C78.0241 9.48 78.6441 9.71333 79.1108 10.18C79.5774 10.6333 79.8108 11.2533 79.8108 12.04C79.8108 12.96 79.4774 13.7533 78.8108 14.42C78.1574 15.0733 77.0374 15.5933 75.4508 15.98C75.7708 16.5933 76.3108 16.9 77.0708 16.9C77.6174 16.9 78.0641 16.7733 78.4108 16.52C78.7708 16.2667 79.1841 15.84 79.6508 15.24C79.8108 15.04 79.9908 14.94 80.1908 14.94ZM76.9108 11.44C76.4174 11.44 75.9974 11.7267 75.6508 12.3C75.3174 12.8733 75.1508 13.5667 75.1508 14.38V14.42C75.9374 14.2333 76.5574 13.9533 77.0108 13.58C77.4641 13.2067 77.6908 12.7733 77.6908 12.28C77.6908 12.0267 77.6174 11.8267 77.4708 11.68C77.3374 11.52 77.1508 11.44 76.9108 11.44Z" fill="white"/>
</svg>
