<svg width="21" height="28" viewBox="0 0 21 28" fill="none" xmlns="http://www.w3.org/2000/svg">
<path d="M17.9122 20.9667C17.9122 21.2 17.8316 21.3973 17.6706 21.5584C17.5095 21.7195 17.3123 21.8 17.0791 21.8H3.74905C3.51577 21.8 3.3186 21.7195 3.15753 21.5584C2.99646 21.3973 2.91592 21.2 2.91592 20.9667V12.2167C2.91592 11.9389 3.02145 11.7167 3.23251 11.55L9.89751 6.36671C10.053 6.2556 10.2252 6.20005 10.414 6.20005C10.6029 6.20005 10.7751 6.2556 10.9306 6.36671L17.5956 11.55C17.8066 11.7167 17.9122 11.9389 17.9122 12.2167V20.9667ZM9.58092 15.1334V20.1334H11.2472V15.1334H9.58092Z" fill="#9333EA"/>
</svg>
