<svg width="21" height="28" viewBox="0 0 21 28" fill="none" xmlns="http://www.w3.org/2000/svg">
<path d="M13.7466 7.33335C13.9799 7.33335 14.1771 7.41391 14.3382 7.57502C14.4992 7.73613 14.5798 7.93335 14.5798 8.16669V11.6667L18.9287 8.63335C19.0175 8.56669 19.1203 8.54169 19.2369 8.55835C19.3536 8.57502 19.4397 8.63335 19.4952 8.73335C19.5507 8.80002 19.5785 8.8778 19.5785 8.96669V19.0334C19.5785 19.1445 19.5368 19.2417 19.4535 19.325C19.3702 19.4084 19.273 19.45 19.1619 19.45C19.0731 19.45 18.9953 19.4222 18.9287 19.3667L14.5798 16.3334V19.8334C14.5798 20.0667 14.4992 20.2639 14.3382 20.425C14.1771 20.5861 13.9799 20.6667 13.7466 20.6667H2.08288C1.84961 20.6667 1.65243 20.5861 1.49136 20.425C1.33029 20.2639 1.24976 20.0667 1.24976 19.8334V8.16669C1.24976 7.93335 1.33029 7.73613 1.49136 7.57502C1.65243 7.41391 1.84961 7.33335 2.08288 7.33335H13.7466ZM6.58176 11.35C6.504 11.35 6.43457 11.3778 6.37348 11.4334C6.31238 11.4889 6.27072 11.55 6.24851 11.6167V11.6834V16.3167C6.24851 16.3722 6.26795 16.4306 6.30682 16.4917C6.3457 16.5528 6.40402 16.5972 6.48178 16.625C6.55954 16.6528 6.63174 16.65 6.69839 16.6167L6.76504 16.5834L10.3808 14.2834C10.4252 14.25 10.4641 14.2167 10.4974 14.1834C10.5308 14.1167 10.5447 14.0445 10.5391 13.9667C10.5335 13.8889 10.503 13.8222 10.4475 13.7667L10.3808 13.7167L6.76504 11.4167C6.7095 11.3722 6.64841 11.35 6.58176 11.35Z" fill="#9333EA"/>
</svg>
